<svg width="24.000000000000004" height="24.000000000000004" xmlns="http://www.w3.org/2000/svg">
 <defs>
  <linearGradient y2="Infinity" y1="Infinity" x2="Infinity" x1="Infinity" id="SVGID_1_">
   <stop stop-color="#000000" stop-opacity="0.1" offset="0"/>
   <stop stop-color="#000000" stop-opacity="0" offset="1"/>
  </linearGradient>
  <linearGradient y2="Infinity" y1="Infinity" x2="Infinity" x1="Infinity" id="SVGID_2_">
   <stop stop-color="#000000" stop-opacity="0.1" offset="0"/>
   <stop stop-color="#000000" stop-opacity="0" offset="1"/>
  </linearGradient>
  <linearGradient y2="Infinity" y1="Infinity" x2="Infinity" x1="Infinity" id="SVGID_3_">
   <stop stop-color="#FFFFFF" stop-opacity="0.2" offset="0"/>
   <stop stop-color="#FFFFFF" stop-opacity="0" offset="1"/>
  </linearGradient>
 </defs>
 <g>
  <title>background</title>
  <rect fill="none" id="canvas_background" height="402" width="582" y="-1" x="-1"/>
 </g>
 <g>
  <title>Layer 1</title>
  <ellipse ry="10.800743" rx="10.800743" id="svg_48" cy="12.053538" cx="11.906889" stroke-width="1.5" stroke="#000" fill="#fff"/>
  <g stroke="null" id="svg_44">
   <path stroke="null" id="svg_2" fill="#1A1A1A" d="m17.431374,15.59111c0.149571,-0.320893 0.218504,-0.770614 0.218504,-1.393665c0,-2.224844 -1.024925,-3.508424 -1.848409,-4.540037c-0.498568,-0.624723 -0.892746,-1.118281 -0.892746,-1.627561l0.000672,-0.159611c0.005352,-0.945952 0.016392,-2.914821 -1.029276,-3.966512c-0.44269,-0.445033 -1.018894,-0.670898 -1.71255,-0.670898c-1.439511,0 -2.39851,0.699344 -2.39851,4.111732c0,0.939264 -0.395179,1.708534 -0.813445,2.522986c-0.18337,0.357035 -0.373099,0.726447 -0.532038,1.116938c-0.316542,0.778317 -1.053028,2.683268 -1.053028,3.555607c0,0.055543 0.013384,0.110085 0.039151,0.159275l2.425278,4.624698c0.052198,0.099381 0.151579,0.164291 0.263007,0.178346c0.013719,0.001672 0.027439,0.002679 0.041158,0.002679c0.097373,0 0.192737,-0.042831 0.25832,-0.116115c0.152251,-0.169643 1.161448,-0.394507 1.770107,-0.394507l2.324561,0c0.089341,0 0.175002,-0.034799 0.238912,-0.097037l2.815104,-2.741155c0.135858,-0.132172 0.138531,-0.349004 0.006695,-0.48452c-0.035471,-0.036478 -0.076965,-0.063245 -0.121467,-0.080645z"/>
   <path stroke="null" id="svg_3" opacity="0.2" fill="#FFFFFF" d="m8.955615,10.038867c0.418266,-0.814452 0.813445,-1.583723 0.813445,-2.522986c0,-3.412388 0.959,-4.111732 2.39851,-4.111732c0.693656,0 1.26986,0.225864 1.71255,0.670898c0.913997,0.919226 1.020614,2.538926 1.0294,3.564056c0.000582,-1.005428 -0.059476,-2.759849 -1.0294,-3.735378c-0.44269,-0.445033 -1.018894,-0.670898 -1.71255,-0.670898c-1.439511,0 -2.39851,0.699344 -2.39851,4.111732c0,0.939264 -0.395179,1.708534 -0.813445,2.522986c-0.18337,0.357035 -0.373099,0.726447 -0.532038,1.116938c-0.316542,0.778317 -1.053028,2.683268 -1.053028,3.555607c0,0.015604 0.008909,0.029365 0.010999,0.044715c0.058058,-0.915628 0.738995,-2.683858 1.042029,-3.428999c0.158939,-0.390491 0.348668,-0.759903 0.532038,-1.116938z"/>
   <path stroke="null" id="svg_4" fill="#0099D8" d="m17.552842,15.843077c0.042495,0.043708 0.065877,0.09666 0.080473,0.151702c0.02857,-0.111846 0.005811,-0.234314 -0.080473,-0.323025c-0.020744,-0.021333 -0.046764,-0.032421 -0.070982,-0.047141c-0.016728,0.046093 -0.031078,0.09616 -0.050485,0.137818c0.044503,0.017399 0.085997,0.044167 0.121467,0.080645z"/>
   <path stroke="null" id="svg_5" opacity="0.2" fill="#FFFFFF" d="m14.908724,8.20117c0,0.509279 0.394178,1.002838 0.892746,1.627561c0.815836,1.022033 1.826281,2.294278 1.845023,4.481315c0.000582,-0.038863 0.003385,-0.072319 0.003385,-0.1126c0,-2.224844 -1.024925,-3.508424 -1.848409,-4.540037c-0.497355,-0.623215 -0.890156,-1.115938 -0.892075,-1.623881c0,0.002385 0,0.005647 0,0.008032l-0.000672,0.159611z"/>
   <path stroke="null" id="svg_6" fill="#0099D8" d="m14.908724,8.029848c0,0.001254 0.000672,0.002426 0.000672,0.00368c0.000665,-0.117404 0.001336,-0.249664 0.000123,-0.394425c-0.000041,0.078507 0.000254,0.162619 -0.000123,0.231134l-0.000672,0.159611z"/>
   <path stroke="null" id="svg_8" fill="#FFFFFF" d="m14.997407,14.753736c-0.008196,-1.668424 -0.234903,-3.545218 -1.553316,-6.240156c-0.652456,0.441148 -1.850177,0.790097 -1.99406,0.790097c-0.259409,0 -0.825787,-0.185165 -1.241914,-0.552528c-0.171075,0.504681 -0.407898,0.971972 -0.642835,1.429594c-0.176681,0.343652 -0.359379,0.699344 -0.506607,1.062067c-0.414168,1.017558 -0.887147,2.357139 -0.982594,3.069031c0.289857,0.193155 0.49201,0.611175 0.715236,1.078165c0.231216,0.483855 0.493223,1.032285 0.830844,1.267517c0.617822,0.430149 0.938133,1.043701 1.022081,1.601211c0.235109,0.023382 0.531448,0.043756 0.868158,0.043756c0.83599,0 1.969369,-0.16978 2.807785,-0.6786c0.047052,-0.906466 0.206258,-2.360449 0.677223,-2.870153z"/>
   <path stroke="null" id="svg_9" fill="#0099D8" d="m17.646493,14.310045c-0.008408,0.561937 -0.075204,0.980915 -0.215119,1.281065c0.018489,0.007237 0.033257,0.023005 0.050485,0.033504c0.1121,-0.308976 0.168019,-0.713646 0.168019,-1.255846c0,-0.02062 -0.003221,-0.038273 -0.003385,-0.058722z"/>
   <path stroke="null" id="svg_10" opacity="0.1" d="m10.644241,18.258733c0.235109,0.023382 0.531448,0.043749 0.868158,0.043749c0.835984,0 1.969362,-0.169773 2.807778,-0.678593l0,-0.171322c-0.838416,0.50882 -1.971795,0.678593 -2.807778,0.678593c-0.33671,0 -0.684816,-0.023464 -0.919925,-0.046839"/>
   <path stroke="null" id="svg_11" opacity="0.3" d="m14.733187,18.726107c-0.06391,0.062238 -0.149571,0.097037 -0.238912,0.097037l-2.324561,0c-0.60866,0 -1.617857,0.224864 -1.770107,0.394507c-0.065582,0.073285 -0.160947,0.116115 -0.25832,0.116115c-0.013719,0 -0.027439,-0.001007 -0.041158,-0.002679c-0.111428,-0.014055 -0.210808,-0.078966 -0.263007,-0.178346l-2.425278,-4.624698c-0.01853,-0.035381 -0.022793,-0.075286 -0.028152,-0.11456c-0.00259,0.040782 -0.010999,0.089423 -0.010999,0.126607c0,0.055543 0.013384,0.110085 0.039151,0.159275l2.425278,4.624698c0.052198,0.099381 0.151579,0.164291 0.263007,0.178346c0.013719,0.001672 0.027439,0.002679 0.041158,0.002679c0.097373,0 0.192737,-0.042831 0.25832,-0.116115c0.152251,-0.169643 1.161448,-0.394507 1.770107,-0.394507l2.324561,0c0.089341,0 0.175002,-0.034799 0.238912,-0.097037l2.815104,-2.741155c0.092062,-0.089554 0.117829,-0.217168 0.087169,-0.332817c-0.015097,0.059017 -0.04024,0.115862 -0.087169,0.161495l-2.815104,2.741155z"/>
   <path stroke="null" id="svg_12" fill="#FDB515" d="m18.284641,16.304174c-0.141875,-0.093021 -0.288774,-0.189393 -0.392499,-0.293125c-0.060566,-0.060559 -0.032798,-0.340636 -0.018071,-0.491208c0.028439,-0.28911 0.057886,-0.58758 -0.136523,-0.802069c-0.073278,-0.080981 -0.207793,-0.177682 -0.430313,-0.177682c-0.18337,0 -0.317213,0.14522 -0.325245,0.328253c-0.000206,0.004982 0.001843,0.009457 0.001843,0.014391l-1.38982,0c0,-0.189393 -0.153251,-0.342644 -0.342644,-0.342644c-1.016221,0 -1.027933,3.731273 -1.031949,3.812919c-0.019072,0.204449 -0.06391,0.683952 0.242928,1.020573c0.185042,0.203113 0.450392,0.306173 0.789021,0.306173c0.889402,0 1.320723,-0.458424 1.737645,-0.901449c0.070269,-0.07495 0.142211,-0.151243 0.21784,-0.226865c0.173659,-0.173666 0.513295,-0.297477 0.813109,-0.40689c0.49188,-0.17969 1.000494,-0.365403 1.000494,-0.863306c0,-0.494223 -0.407891,-0.761918 -0.735815,-0.977071z"/>
   <path stroke="null" id="svg_13" fill="#FDB515" d="m9.622161,16.657522c-0.337621,-0.235232 -0.599628,-0.783662 -0.830844,-1.267517c-0.305837,-0.639779 -0.570181,-1.19256 -1.078124,-1.19256c-0.641122,0 -0.781325,0.576204 -0.856275,0.885722c-0.020751,0.085325 -0.052198,0.213817 -0.055214,0.228873c-0.050862,0.031455 -0.242256,0.069269 -0.36874,0.094364c-0.418273,0.082982 -1.118281,0.221513 -1.118281,0.846907c0,0.182033 0.027103,0.336621 0.056886,0.497568c0.05287,0.285094 0.102725,0.554124 -0.045846,1.129993c-0.00736,0.027775 -0.01104,0.056886 -0.01104,0.085661c0,0.82382 1.279564,0.93056 2.044154,0.994135c0.127155,0.010711 0.232889,0.018743 0.300821,0.029447c0.105397,0.016735 0.326245,0.118452 0.539727,0.216832c0.456752,0.210808 1.02526,0.472808 1.569674,0.472808c0.391499,0 0.704696,-0.252967 0.837875,-0.676586c0.207122,-0.660193 -0.067261,-1.706869 -0.984774,-2.345647z"/>
   <path stroke="null" id="svg_14" opacity="0.2" fill="#FFFFFF" d="m6.379005,15.577727c0.130835,-0.025095 0.328884,-0.062909 0.3815,-0.094364c0.003098,-0.015056 0.035635,-0.143547 0.057098,-0.228873c0.07754,-0.309517 0.222595,-0.885722 0.885886,-0.885722c0.525514,0 0.799012,0.552781 1.115438,1.19256c0.239207,0.483855 0.51028,1.032285 0.859578,1.267517c0.347955,0.234149 0.604685,0.523588 0.782072,0.828212c-0.169061,-0.366486 -0.43964,-0.721931 -0.838416,-0.999535c-0.337621,-0.235232 -0.599628,-0.783662 -0.830844,-1.267517c-0.305837,-0.639779 -0.570181,-1.19256 -1.078124,-1.19256c-0.641122,0 -0.781325,0.576204 -0.856275,0.885722c-0.020751,0.085325 -0.052198,0.213817 -0.055214,0.228873c-0.050862,0.031455 -0.242256,0.069269 -0.36874,0.094364c-0.363265,0.072065 -0.937756,0.186926 -1.082941,0.625394c0.226995,-0.299272 0.707752,-0.392465 1.028981,-0.454072z"/>
   <path stroke="null" id="svg_15" fill="#1A1A1A" d="m17.307234,13.854801c-0.065671,0 -0.123475,0.023341 -0.175592,0.055296l-2.287918,-3.743869c-0.249829,-0.705868 -0.569427,-1.454649 -1.001077,-2.293312c-0.086333,-0.167642 -0.29279,-0.234232 -0.461432,-0.147899c-0.167978,0.086662 -0.234232,0.293454 -0.14757,0.461761c1.546923,3.00617 1.675079,4.882682 1.67575,6.676884c-0.004016,0.071942 -0.028446,0.713728 0.340636,1.104226c0.176674,0.186714 0.413914,0.285423 0.686625,0.285423l0.120796,0.000672c0.038479,0.000329 0.077294,0.000665 0.11678,0.000665c0.348332,0 0.725111,-0.026432 1.019901,-0.318885c0.315205,-0.312526 0.455744,-0.848579 0.455744,-1.738317c0,-0.189393 -0.153251,-0.342644 -0.342644,-0.342644z"/>
   <path stroke="null" id="svg_16" opacity="0.3" d="m17.194134,15.76444c-0.294791,0.292454 -0.671569,0.318885 -1.019901,0.318885c-0.039486,0 -0.078301,-0.000336 -0.11678,-0.000665l-0.120796,-0.000672c-0.272711,0 -0.509951,-0.098709 -0.686625,-0.285423c-0.27635,-0.292372 -0.332063,-0.725447 -0.340931,-0.954909c0,0.007278 0.000295,0.014727 0.000295,0.022005c-0.004016,0.071942 -0.028446,0.713728 0.340636,1.104226c0.176674,0.186714 0.413914,0.285423 0.686625,0.285423l0.120796,0.000672c0.038479,0.000329 0.077294,0.000665 0.11678,0.000665c0.348332,0 0.725111,-0.026432 1.019901,-0.318885c0.315205,-0.312526 0.455744,-0.848579 0.455744,-1.738317c0,-0.010999 -0.00527,-0.020285 -0.006277,-0.031037c-0.015515,0.799602 -0.15258,1.3037 -0.449467,1.598031z"/>
   <path stroke="null" id="svg_17" fill="#FFFFFF" d="m12.852858,5.317132c-0.397186,0 -0.685289,0.426298 -0.685289,1.013885c0,0.587244 0.288102,1.013542 0.685289,1.013542s0.685289,-0.426298 0.685289,-1.013542c0,-0.587587 -0.288102,-1.013885 -0.685289,-1.013885z"/>
   <ellipse stroke="null" id="svg_18" ry="0.608698" rx="0.310824" cy="6.582679" cx="12.852858"/>
   <path stroke="null" id="svg_19" fill="#FFFFFF" d="m10.796992,5.317132c-0.397186,0 -0.685289,0.426298 -0.685289,1.013885c0,0.587244 0.288102,1.013542 0.685289,1.013542s0.685289,-0.426298 0.685289,-1.013542c0,-0.587587 -0.288102,-1.013885 -0.685289,-1.013885z"/>
   <path stroke="null" id="svg_20" fill="url(#SVGID_1_)" d="m13.402377,8.538668c-0.659981,0.428936 -1.811266,0.765015 -1.952346,0.765015c-0.259409,0 -0.825787,-0.185172 -1.241914,-0.552535l4.647319,4.647326c-0.110338,-1.326746 -0.458294,-2.835978 -1.453059,-4.859807z"/>
   <ellipse stroke="null" id="svg_21" ry="0.596604" rx="0.304649" cy="6.570586" cx="10.796992"/>
   <path stroke="null" id="svg_22" fill="#FDB515" d="m11.892179,6.665966c-0.02208,-0.004352 -0.044838,-0.006695 -0.067254,-0.006695c-0.736822,0 -2.055866,0.690977 -2.055866,1.370577c0,0.642122 1.295956,1.370577 1.713222,1.370577c0.202441,0 2.39851,-0.762582 2.39851,-1.370577c0,-0.896433 -1.522156,-1.270525 -1.988612,-1.363882z"/>
   <path stroke="null" id="svg_23" fill="#FDB515" d="m11.892179,6.665966c-0.02208,-0.004352 -0.044838,-0.006695 -0.067254,-0.006695c-0.736822,0 -2.055866,0.690977 -2.055866,1.370577c0,0.642122 1.295956,1.370577 1.713222,1.370577c0.202441,0 2.39851,-0.762582 2.39851,-1.370577c0,-0.896433 -1.522156,-1.270525 -1.988612,-1.363882z"/>
   <path stroke="null" id="svg_24" opacity="0.1" d="m18.019962,17.973229c-0.299814,0.109413 -0.63945,0.233224 -0.813109,0.40689c-0.075628,0.075622 -0.14757,0.151915 -0.21784,0.226865c-0.416923,0.443025 -0.848243,0.901449 -1.737645,0.901449c-0.338629,0 -0.603979,-0.103061 -0.789021,-0.306173c-0.200892,-0.220382 -0.246067,-0.496608 -0.251378,-0.722178c-0.014802,0.236699 -0.006312,0.610798 0.251378,0.8935c0.185042,0.203113 0.450392,0.306173 0.789021,0.306173c0.889402,0 1.320723,-0.458424 1.737645,-0.901449c0.070269,-0.07495 0.142211,-0.151243 0.21784,-0.226865c0.173659,-0.173666 0.513295,-0.297477 0.813109,-0.40689c0.49188,-0.17969 1.000494,-0.365403 1.000494,-0.863306c0,-0.024842 -0.011835,-0.042789 -0.013843,-0.066507c-0.068515,0.417978 -0.532079,0.592439 -0.986651,0.758491z"/>
   <path stroke="null" id="svg_25" opacity="0.1" d="m10.606934,18.831847c-0.133179,0.423618 -0.446376,0.676586 -0.837875,0.676586c-0.544414,0 -1.112923,-0.262 -1.569674,-0.472808c-0.213481,-0.09838 -0.434329,-0.200097 -0.539727,-0.216832c-0.067933,-0.010704 -0.173666,-0.018736 -0.300821,-0.029447c-0.740461,-0.061566 -1.953388,-0.169643 -2.029894,-0.924283c-0.001501,0.005941 -0.001672,0.009827 -0.003221,0.01581c-0.00736,0.027775 -0.01104,0.056886 -0.01104,0.085661c0,0.82382 1.279564,0.93056 2.044154,0.994135c0.127155,0.010711 0.232889,0.018743 0.300821,0.029447c0.105397,0.016735 0.326245,0.118452 0.539727,0.216832c0.456752,0.210808 1.02526,0.472808 1.569674,0.472808c0.391499,0 0.704696,-0.252967 0.837875,-0.676586c0.054165,-0.172665 0.073319,-0.372386 0.058722,-0.583695c-0.003721,0.146727 -0.019661,0.287808 -0.058722,0.412372z"/>
   <path stroke="null" id="svg_26" opacity="0.1" d="m11.474791,9.229103c-0.384091,0 -1.48794,-0.603897 -1.704813,-1.203353c0,0.001377 -0.000918,0.002721 -0.000918,0.004098c0,0.642122 1.295956,1.370577 1.713222,1.370577c0.202441,0 2.39851,-0.762582 2.39851,-1.370577c0,-0.01326 -0.007196,-0.023923 -0.00786,-0.036978c-0.325204,0.586121 -2.209165,1.236233 -2.39814,1.236233z"/>
   <path stroke="null" id="svg_27" fill="url(#SVGID_2_)" d="m18.284641,16.304174c-0.141875,-0.093021 -0.288774,-0.189393 -0.392499,-0.293125c-0.060566,-0.060559 -0.032798,-0.340636 -0.018071,-0.491208c0.028439,-0.28911 0.057886,-0.58758 -0.136523,-0.802069c-0.024849,-0.02748 -0.064499,-0.053247 -0.107412,-0.077424c-0.043077,0.623887 -0.178682,1.040275 -0.436001,1.295415c-0.294791,0.292454 -0.671569,0.318885 -1.019901,0.318885c-0.039486,0 -0.078301,-0.000336 -0.11678,-0.000665l-0.120796,-0.000672c-0.272711,0 -0.509951,-0.098709 -0.686625,-0.285423l2.344215,2.344215c0.136818,-0.061231 0.285217,-0.11628 0.425715,-0.167553c0.49188,-0.17969 1.000494,-0.365403 1.000494,-0.863306c0,-0.494223 -0.407891,-0.761918 -0.735815,-0.977071z"/>
   <path stroke="null" id="svg_28" fill="url(#SVGID_3_)" d="m18.284641,16.304174c-0.141875,-0.093021 -0.288774,-0.189393 -0.392499,-0.293125c-0.060566,-0.060559 -0.032798,-0.340636 -0.018071,-0.491208c0.028439,-0.28911 0.057886,-0.58758 -0.136523,-0.802069c-0.023423,-0.025849 -0.064917,-0.05078 -0.101683,-0.07617c0.009203,-0.137441 0.014014,-0.284799 0.014014,-0.444156c0,-2.224844 -1.024925,-3.508424 -1.848409,-4.540037c-0.498568,-0.624723 -0.892746,-1.118281 -0.892746,-1.627561l0.000672,-0.159611c0.005352,-0.945952 0.016392,-2.914821 -1.029276,-3.966512c-0.44269,-0.445033 -1.018894,-0.670898 -1.71255,-0.670898c-1.439511,0 -2.39851,0.699344 -2.39851,4.111732c0,0.939264 -0.395179,1.708534 -0.813445,2.522986c-0.18337,0.357035 -0.373099,0.726447 -0.532038,1.116938c-0.286971,0.705621 -0.913366,2.329454 -1.028934,3.278126c-0.370378,0.155848 -0.477495,0.571901 -0.537725,0.820558c-0.020751,0.085325 -0.052198,0.213817 -0.055214,0.228873c-0.050862,0.031455 -0.242256,0.069269 -0.36874,0.094364c-0.418273,0.082982 -1.118281,0.221513 -1.118281,0.846907c0,0.182033 0.027103,0.336621 0.056886,0.497568c0.05287,0.285094 0.102725,0.554124 -0.045846,1.129993c-0.00736,0.027775 -0.01104,0.056886 -0.01104,0.085661c0,0.82382 1.279564,0.93056 2.044154,0.994135c0.127155,0.010711 0.232889,0.018743 0.300821,0.029447c0.105397,0.016735 0.326245,0.118452 0.539727,0.216832c0.456752,0.210808 1.02526,0.472808 1.569674,0.472808c0.234314,0 0.434288,-0.099675 0.590678,-0.26326c0.011958,-0.010163 0.027185,-0.015721 0.037725,-0.027521c0.152251,-0.169643 1.161448,-0.394507 1.770107,-0.394507l2.097442,0c0.037766,0.132089 0.092185,0.263761 0.197336,0.379115c0.185042,0.203113 0.450392,0.306173 0.789021,0.306173c0.889402,0 1.320723,-0.458424 1.737645,-0.901449c0.070269,-0.07495 0.142211,-0.151243 0.21784,-0.226865c0.173659,-0.173666 0.513295,-0.297477 0.813109,-0.40689c0.49188,-0.17969 1.000494,-0.365403 1.000494,-0.863306c0,-0.494223 -0.407891,-0.761918 -0.735815,-0.977071z"/>
  </g>
 </g>
</svg>